# xmcd
#
# Track frame offsets: 
#        150
#        14150
#        28097
#        46147
#        63097
#        79752
#        95417
#        114335
#        127672
#        142227
#        160232
#        172447
#
# Disc length: 2526 seconds
#
# Revision: 3
# Processed by: cddbd v1.5.2PL0 Copyright (c) Steve Scherf et al.
# Submitted via: ExactAudioCopy v0.99pb5
#
DISCID=a009dc0c
DTITLE=Various Artist - The Best Of Disco: The Millennium Collection
DYEAR=2002
DGENRE=Electronica
TTITLE0=Alicia Bridges - I Love The Nightlife
TTITLE1=KC and The Sunshine Band - Shake Your Booty (Shake, Shake, Shake
TTITLE1=)
TTITLE2=Lipps Inc. - Funkytown
TTITLE3=The Village People - In The Navy
TTITLE4=Sylvester - You Make Me Feel (Mighty Real)
TTITLE5=Kool and The Gang - Ladies Night
TTITLE6=Marvin Gaye - Got To Give It Up
TTITLE7=Gloria Gaynor - Never Can Say Goodbye
TTITLE8=Rose Royce - Car Wash
TTITLE9=The Commodores - Lady (You Bring Me Up)
TTITLE10=The Jackson 5 - Dancing Machine
TTITLE11=Meco - Star Wars  Cantina Band
EXTD=
EXTT0=
EXTT1=
EXTT2=
EXTT3=
EXTT4=
EXTT5=
EXTT6=
EXTT7=
EXTT8=
EXTT9=
EXTT10=
EXTT11=
PLAYORDER=
